<svg id="Ebene_1" data-name="Ebene 1" xmlns="http://www.w3.org/2000/svg" viewBox="0 0 53.677 50.183"><defs><style>.cls-2{fill:none;stroke-width:1.5px;stroke:#000;stroke-linecap:round;stroke-linejoin:round}</style></defs><path d="M37.409 40.202v5.53a3.686 3.686 0 01-3.672 3.701q-.174.001-.347-.015a36.477 36.477 0 01-15.907-5.658A35.943 35.943 0 016.423 32.7 36.477 36.477 0 01.766 16.72a3.686 3.686 0 013.34-4.004q.164-.015.328-.015h5.53a3.687 3.687 0 013.687 3.17 23.67 23.67 0 001.29 5.18 3.687 3.687 0 01-.83 3.89l-3.837 2.34a37.86 37.86 0 0012.556 12.556l2.34-3.838a3.686 3.686 0 013.89-.83 23.67 23.67 0 005.18 1.29 3.686 3.686 0 013.17 3.743z" stroke="#fa8c38" stroke-miterlimit="10" fill="none" stroke-width="1.5"/><rect class="cls-2" x="22.071" y="6.921" width="30.856" height="21.599" rx="3.086"/><path class="cls-2" d="M32.047 12.528V33.5M46.76 8.815a3.086 3.086 0 00-3.085-3.085h-6.171a3.086 3.086 0 00-3.086 3.085M49.13 33.5V12.633" transform="translate(-3.09 -4.98)"/></svg>