<svg id="Ebene_1" data-name="Ebene 1" xmlns="http://www.w3.org/2000/svg" viewBox="0 0 54.715 55.8804"><defs><style>.cls-1,.cls-4{fill:none;stroke-linecap:round;stroke-linejoin:round;stroke-width:1.5px;}.cls-1{stroke:#000;}.cls-2{fill:#fff;}.cls-3{fill:#FA8C38;}.cls-4{stroke:#FA8C38;}</style></defs><rect class="cls-1" x="0.75" y="9.6322" width="49.4704" height="34.6293" rx="4.947"/><path class="cls-1" d="M16.04,13.84v33.624" transform="translate(-4.25 -3.2027)"/><path class="cls-1" d="M39.6293,8.9a4.947,4.947,0,0,0-4.9471-4.947h-9.894A4.947,4.947,0,0,0,19.8411,8.9" transform="translate(-4.25 -3.2027)"/><path class="cls-1" d="M43.43,47.4641V14.0078" transform="translate(-4.25 -3.2027)"/><path class="cls-2" d="M43.8047,58.333a14.4107,14.4107,0,1,1,14.41-14.41A14.4269,14.4269,0,0,1,43.8047,58.333Z" transform="translate(-4.25 -3.2027)"/><path class="cls-2" d="M43.8044,30.2619A13.6606,13.6606,0,1,1,30.1438,43.9225,13.6607,13.6607,0,0,1,43.8044,30.2619m0-1.5A15.1606,15.1606,0,1,0,58.965,43.9225,15.1777,15.1777,0,0,0,43.8044,28.7619Z" transform="translate(-4.25 -3.2027)"/><path class="cls-3" d="M43.8044,31.7619A12.1606,12.1606,0,1,1,31.6438,43.9225,12.1743,12.1743,0,0,1,43.8044,31.7619m0-1.5A13.6606,13.6606,0,1,0,57.465,43.9225,13.6607,13.6607,0,0,0,43.8044,30.2619Z" transform="translate(-4.25 -3.2027)"/><line class="cls-4" x1="34.0355" y1="46.2853" x2="45.6723" y2="34.6485"/><circle class="cls-4" cx="36.0128" cy="36.4972" r="2.9557"/><circle class="cls-4" cx="43.096" cy="44.5924" r="2.9557"/></svg>
