<svg data-name="Ebene 6" xmlns="http://www.w3.org/2000/svg" viewBox="0 0 54.031 43.7"><path d="M36.25 2.404a5.642 5.642 0 00-7.979-.002l-.002.002-1.087 1.087-1.088-1.087a5.643 5.643 0 00-7.98 7.98l1.087 1.088 7.98 7.98 7.981-7.98 1.088-1.087a5.642 5.642 0 00.002-7.98z" stroke="#fa8c38" stroke-miterlimit="10" fill="none" stroke-width="1.5"/><path d="M20.058 34.055H33.27a2.765 2.765 0 002.673-2.886 2.696 2.696 0 00-2.63-2.75H21.954l-6.172-4.28a4.427 4.427 0 00-3.923-.562l-3.995 1.332H.75v14.227h7.114l16.59 3.687a5.321 5.321 0 003.298-.324l23.81-10.476s2.49-1.245 1.476-3.604c-1.046-2.436-3.994-1.288-3.994-1.288l-13.21 5.16" stroke="#000" stroke-linecap="round" stroke-linejoin="round" fill="none" stroke-width="1.5"/></svg>