<svg id="Ebene_1" data-name="Ebene 1" xmlns="http://www.w3.org/2000/svg" viewBox="0 0 54.715 55.88"><defs><style>.cls-1,.cls-4{fill:none;stroke-linecap:round;stroke-linejoin:round;stroke-width:1.5px}.cls-1{stroke:#000}.cls-2{fill:#fff}.cls-4{stroke:#fa8c38}</style></defs><rect class="cls-1" x=".75" y="9.632" width="49.47" height="34.629" rx="4.947"/><path class="cls-1" d="M16.04 13.84v33.624M39.63 8.9a4.947 4.947 0 00-4.948-4.947h-9.894A4.947 4.947 0 0019.841 8.9M43.43 47.464V14.008" transform="translate(-4.25 -3.203)"/><path class="cls-2" d="M43.805 58.333a14.41 14.41 0 1114.41-14.41 14.427 14.427 0 01-14.41 14.41z" transform="translate(-4.25 -3.203)"/><path class="cls-2" d="M43.804 30.262a13.66 13.66 0 11-13.66 13.66 13.66 13.66 0 0113.66-13.66m0-1.5a15.16 15.16 0 1015.161 15.16 15.178 15.178 0 00-15.16-15.16z" transform="translate(-4.25 -3.203)"/><path d="M43.804 31.762a12.16 12.16 0 11-12.16 12.16 12.174 12.174 0 0112.16-12.16m0-1.5a13.66 13.66 0 1013.661 13.66 13.66 13.66 0 00-13.66-13.66z" transform="translate(-4.25 -3.203)" fill="#fa8c38"/><path class="cls-4" d="M34.035 46.285l11.637-11.637"/><circle class="cls-4" cx="36.013" cy="36.497" r="2.956"/><circle class="cls-4" cx="43.096" cy="44.592" r="2.956"/></svg>