<svg id="Ebene_5" data-name="Ebene 5" xmlns="http://www.w3.org/2000/svg" viewBox="0 0 51.5 54.5"><defs><style>.cls-2{fill:none;stroke-width:1.5px;stroke:#000;stroke-linecap:round;stroke-linejoin:round}</style></defs><circle cx="30.508" cy="5.992" r="5.242" stroke-miterlimit="10" stroke="#fa8c38" fill="none" stroke-width="1.5"/><path class="cls-2" d="M17.752 11.889v9.604a11.003 11.003 0 00-5.888 6.291C11.4 29.008 5 30.644 5 30.644v9.723s5.951.953 9.14 4.194S17.326 56 17.326 56h8.29l1.487-5.91a23.02 23.02 0 004.889.572 12.822 12.822 0 005.526-1.335V56h9.776l1.488-10.486s5.704-4.53 6.164-10.676A16.282 16.282 0 0048.44 20.15c-4.054-3.01-14.482-5.247-21.354-1.815-2.267-1.525-9.335-6.446-9.335-6.446zM29.973 21.302s5.141-2.14 10.096 0" transform="translate(-4.25 -2.25)"/><ellipse cx="15.803" cy="24.337" rx="1.356" ry="1.216" stroke="#000" stroke-miterlimit="10" fill="none" stroke-width="1.5"/></svg>