<svg id="Ebene_2" data-name="Ebene 2" xmlns="http://www.w3.org/2000/svg" viewBox="0 0 54.279 48.143"><defs><style>.cls-1,.cls-2{fill:none;stroke-linecap:round;stroke-linejoin:round;stroke-width:1.5px}.cls-1{stroke:#fa8c38}.cls-2{stroke:#000}</style></defs><path class="cls-1" d="M17.543 9.147H.75M9.147 17.543L.75 9.147 9.147.75M36.735 9.147h16.794M45.132.75l8.397 8.397-8.397 8.396"/><path class="cls-2" d="M23.595 38.16V17.555a2.403 2.403 0 012.681-2.346 2.537 2.537 0 012.681 2.558v13.335" transform="translate(-3.25 -5.607)"/><path class="cls-2" d="M22.748 29.269h-2.54a2.349 2.349 0 00-2.117 2.611v13.707a6.463 6.463 0 004.142 6.088A27.054 27.054 0 0031.554 53a36.874 36.874 0 008.492-.808 6.564 6.564 0 005-6.399v-17.23s0-3.256-3.036-3.256c-2.121 0-12.206.01-12.206.01M34.25 31.244c.07-.423 0-5.931 0-5.931" transform="translate(-3.25 -5.607)"/><path class="cls-2" d="M36.009 25.638v-5.932"/></svg>