<svg id="Ebene_1" data-name="Ebene 1" xmlns="http://www.w3.org/2000/svg" viewBox="0 0 309.056 25.3"><defs><style>.cls-1{fill:#fff}</style></defs><g id="appear1"><path id="path" class="cls-1" d="M246.78 28.93a.663.663 0 01-.373.624l-.877.18a.663.663 0 01-.624-.375.663.663 0 01.374-.624l.877-.18a.574.574 0 01.624.375z" transform="translate(-5.972 -5.65)"/></g><g id="appear2"><path id="path-2" data-name="path" class="cls-1" d="M250.948 27.681a.663.663 0 01-.318.655l-.858.255a.663.663 0 01-.654-.319.663.663 0 01.318-.655l.858-.255a.574.574 0 01.654.319z" transform="translate(-5.972 -5.65)"/></g><g id="appear3"><path id="path-3" data-name="path" class="cls-1" d="M255.154 25.936a.663.663 0 01-.26.68l-.832.328a.663.663 0 01-.68-.26.663.663 0 01.26-.68l.832-.328a.574.574 0 01.68.26z" transform="translate(-5.972 -5.65)"/></g><g id="appear4"><path id="path-4" data-name="path" class="cls-1" d="M258.872 23.85a.663.663 0 01-.2.7l-.8.4a.663.663 0 01-.7-.2.663.663 0 01.2-.7l.8-.4a.574.574 0 01.7.2z" transform="translate(-5.972 -5.65)"/></g><g id="appear5"><path id="path-5" data-name="path" class="cls-1" d="M262.18 21.412a.663.663 0 01-.063.725l-.709.546a.663.663 0 01-.725-.063.663.663 0 01.063-.725l.709-.546a.574.574 0 01.725.063z" transform="translate(-5.972 -5.65)"/></g><g id="appear6"><path id="path-6" data-name="path" class="cls-1" d="M267 16.986a.663.663 0 01.14.715l-.531.72a.663.663 0 01-.715.14.663.663 0 01-.14-.715l.531-.72a.574.574 0 01.715-.14z" transform="translate(-5.972 -5.65)"/></g><g id="appear7"><path id="path-7" data-name="path" class="cls-1" d="M269.27 12.434a.663.663 0 01.297.665l-.356.82a.663.663 0 01-.665.298.663.663 0 01-.297-.665l.356-.821a.574.574 0 01.665-.297z" transform="translate(-5.972 -5.65)"/></g><g id="appear8"><path id="path-8" data-name="path" class="cls-1" d="M267.065 8.433a.663.663 0 01.684-.25l.794.412a.663.663 0 01.25.684.663.663 0 01-.684.25l-.794-.412a.574.574 0 01-.25-.684z" transform="translate(-5.972 -5.65)"/></g><g id="appear9"><path id="path-9" data-name="path" class="cls-1" d="M262.166 9.194a.663.663 0 01.037-.727l.69-.57a.663.663 0 01.728.037.663.663 0 01-.038.728l-.69.57a.574.574 0 01-.727-.038z" transform="translate(-5.972 -5.65)"/></g><g id="appear10"><path id="path-10" data-name="path" class="cls-1" d="M261.148 13.906a.663.663 0 01-.604-.406l-.133-.885a.663.663 0 01.406-.604.663.663 0 01.604.407l.133.884a.574.574 0 01-.406.604z" transform="translate(-5.972 -5.65)"/></g><g id="appear11"><path id="path-11" data-name="path" class="cls-1" d="M262.972 18.65a.663.663 0 01-.7-.2l-.4-.8a.663.663 0 01.2-.7.663.663 0 01.7.2l.4.8a.574.574 0 01-.2.7z" transform="translate(-5.972 -5.65)"/></g><g id="appear12"><path id="path-12" data-name="path" class="cls-1" d="M265.949 22.716a.663.663 0 01-.726.052l-.65-.615a.663.663 0 01-.051-.726.663.663 0 01.726-.052l.65.615a.574.574 0 01.051.726z" transform="translate(-5.972 -5.65)"/></g><g id="appear13"><path id="path-13" data-name="path" class="cls-1" d="M269.36 25.468a.663.663 0 01-.692.226l-.78-.44a.663.663 0 01-.225-.692.663.663 0 01.692-.226l.78.44a.574.574 0 01.225.692z" transform="translate(-5.972 -5.65)"/></g><g id="appear14"><path id="path-14" data-name="path" class="cls-1" d="M273.808 27.453a.663.663 0 01-.618.386l-.862-.238a.663.663 0 01-.386-.617.663.663 0 01.617-.387l.862.238a.574.574 0 01.387.618z" transform="translate(-5.972 -5.65)"/></g><g id="appear15"><path id="path-15" data-name="path" class="cls-1" d="M278.726 27.966a.663.663 0 01-.478.55l-.894.024a.663.663 0 01-.55-.477.663.663 0 01.477-.55l.895-.024a.574.574 0 01.55.477z" transform="translate(-5.972 -5.65)"/></g><g id="appear16"><path id="path-16" data-name="path" class="cls-1" d="M283.645 27.097a.663.663 0 01-.341.643l-.866.225a.663.663 0 01-.643-.341.663.663 0 01.341-.643l.866-.225a.574.574 0 01.643.341z" transform="translate(-5.972 -5.65)"/></g><g id="appear17"><path id="path-17" data-name="path" class="cls-1" d="M287.7 25.671a.663.663 0 01-.26.68l-.831.329a.663.663 0 01-.68-.26.663.663 0 01.26-.68l.832-.329a.574.574 0 01.68.26z" transform="translate(-5.972 -5.65)"/></g><g id="appear18"><path id="path-18" data-name="path" class="cls-1" d="M291.872 23.65a.663.663 0 01-.2.7l-.8.4a.663.663 0 01-.7-.2.663.663 0 01.2-.7l.8-.4a.574.574 0 01.7.2z" transform="translate(-5.972 -5.65)"/></g><path class="cls-1" d="M29.572 7.25v3.5h-10v20.1h-3.6v-20.1h-10v-3.5zM46.772 11.85v3.5h-10.6a.683.683 0 00-.7.7v14.8h-3.5v-14.7a5.08 5.08 0 01.3-1.7 4.194 4.194 0 01.9-1.4 3.39 3.39 0 011.4-.9 4.671 4.671 0 011.7-.3zM63.972 11.85a5.08 5.08 0 011.7.3 4.194 4.194 0 011.4.9 3.39 3.39 0 01.9 1.4 4.671 4.671 0 01.3 1.7v14.8h-15.1a5.08 5.08 0 01-1.7-.3 4.194 4.194 0 01-1.4-.9 3.39 3.39 0 01-.9-1.4 4.671 4.671 0 01-.3-1.7v-7h15.8v-3.5a.683.683 0 00-.7-.7h-15.1v-3.5l15.1-.1zm.7 11.3h-12.2v3.5a.683.683 0 00.7.7h11.5zM93.872 11.85l-10.5 19h-3.5l-10.5-19h4.1l8.2 15 8.2-15zM109.272 11.85a5.08 5.08 0 011.7.3 4.194 4.194 0 011.4.9 3.39 3.39 0 01.9 1.4 4.671 4.671 0 01.3 1.7v7h-15.9v3.5a.683.683 0 00.7.7h15.1v3.5h-15.1a5.08 5.08 0 01-1.7-.3 4.194 4.194 0 01-1.4-.9 3.39 3.39 0 01-.9-1.4 4.671 4.671 0 01-.3-1.7v-10.4a5.08 5.08 0 01.3-1.7 4.194 4.194 0 01.9-1.4 3.39 3.39 0 011.4-.9 4.671 4.671 0 011.7-.3zm.7 7.7v-3.5a.683.683 0 00-.7-.7h-10.9a.683.683 0 00-.7.7v3.5zM116.772 16.15V5.65h3.5v21a.683.683 0 00.7.7h3.5v3.5h-3.5a5.08 5.08 0 01-1.7-.3 4.194 4.194 0 01-1.4-.9 3.39 3.39 0 01-.9-1.4 4.671 4.671 0 01-.3-1.7l.1-10.4zM161.672 7.25a5.08 5.08 0 011.7.3 4.194 4.194 0 011.4.9 3.39 3.39 0 01.9 1.4 4.671 4.671 0 01.3 1.7v15.1a5.08 5.08 0 01-.3 1.7 4.194 4.194 0 01-.9 1.4 3.39 3.39 0 01-1.4.9 4.671 4.671 0 01-1.7.3h-19.4V7.25zm.7 4.3a.683.683 0 00-.7-.7h-15.1a.683.683 0 00-.7.7v15.1a.683.683 0 00.7.7h15.1a.683.683 0 00.7-.7zM184.572 11.85a5.08 5.08 0 011.7.3 4.194 4.194 0 011.4.9 3.39 3.39 0 01.9 1.4 4.671 4.671 0 01.3 1.7v7h-15.9v3.5a.683.683 0 00.7.7h15.1v3.5h-15.1a5.08 5.08 0 01-1.7-.3 4.194 4.194 0 01-1.4-.9 3.39 3.39 0 01-.9-1.4 4.671 4.671 0 01-.3-1.7v-10.4a5.08 5.08 0 01.3-1.7 4.194 4.194 0 01.9-1.4 3.39 3.39 0 011.4-.9 4.671 4.671 0 011.7-.3zm.7 7.7v-3.5a.683.683 0 00-.7-.7h-10.8a.683.683 0 00-.7.7v3.5zM207.272 11.85a5.08 5.08 0 011.7.3 4.194 4.194 0 011.4.9 3.39 3.39 0 01.9 1.4 4.671 4.671 0 01.3 1.7v14.8h-15.1a5.08 5.08 0 01-1.7-.3 4.194 4.194 0 01-1.4-.9 3.39 3.39 0 01-.9-1.4 4.671 4.671 0 01-.3-1.7v-7h15.8v-3.5a.683.683 0 00-.7-.7h-15.1v-3.5l15.1-.1zm.7 11.3h-12.3v3.5a.683.683 0 00.7.7h11.6zM214.272 16.15V5.65h3.5v21a.683.683 0 00.7.7h3.5v3.5h-3.5a5.08 5.08 0 01-1.7-.3 4.194 4.194 0 01-1.4-.9 3.39 3.39 0 01-.9-1.4 4.671 4.671 0 01-.3-1.7l.1-10.4z" transform="translate(-5.972 -5.65)"/><path class="cls-1" d="M315.011 6.688c.2.7-1.4 2.4-4.5 4.8v4l.9-.5c.2-.1.4-.1.5.1.3.4.3.7-.1.8l-1.6 1.2.2 2.7.8-.4a.614.614 0 01.6.1c.2.3.3.5-.1.7l-1.5 1.4v2.8c-.1.3-.1.5-.3.7l-1.1.8-1.6-6.9a8.57 8.57 0 00-1.3-3.2c-.5-.6-1-.5-1.6 0a41.589 41.589 0 01-4.9 3.3v4l-1.3 1.3-1.4-4a1.598 1.598 0 00-1 .5c.2-.2.4-.6.7-.9l-3.5-2.5 1.6-.8 3.9 1.1c1.6-1.5 3.1-2.8 4.4-3.9.7-.5.9-1 .3-1.5a9.289 9.289 0 00-2.8-2.1l-6.1-3.3 1.1-.8c.3-.2.5-.3.8 0l2.6.8 1.6-1.1c.3-.2.5-.3.7.1a1.483 1.483 0 01.1.7l-.8.8 2.4.8 1.6-1.1a.467.467 0 01.7.1c.1.2.1.4-.1.5l-.8.8 3.9 1.1c4.7-3.5 6.7-4.3 7-3z" transform="translate(-5.972 -5.65)" id="plane"/><path class="cls-1" d="M224.272 11.85h19.3v4.2l-14.6 11.3h14.6v3.5h-19.3v-4.2l14.6-11.3h-14.6zM137.372 20.35a1.075 1.075 0 01-1 1h-6.9a1.075 1.075 0 01-1-1v-1.1a1.075 1.075 0 011-1h6.9a1.075 1.075 0 011 1z" transform="translate(-5.972 -5.65)"/></svg>