<svg id="Ebene_1" data-name="Ebene 1" xmlns="http://www.w3.org/2000/svg" viewBox="0 0 309.056 25.3"><defs><style>.cls-1{fill:#fff;}</style></defs><g id="appear1"><path id="path" class="cls-1" d="M246.7809,28.93h0a.6629.6629,0,0,1-.3744.6244l-.8763.1793a.6628.6628,0,0,1-.6243-.3744h0a.6627.6627,0,0,1,.3743-.6244l.8763-.1793A.5739.5739,0,0,1,246.7809,28.93Z" transform="translate(-5.972 -5.65)"/></g><g id="appear2"><path id="path-2" data-name="path" class="cls-1" d="M250.9483,27.681h0a.663.663,0,0,1-.3185.6547l-.8573.255a.663.663,0,0,1-.6547-.3185h0a.663.663,0,0,1,.3185-.6547l.8573-.255A.574.574,0,0,1,250.9483,27.681Z" transform="translate(-5.972 -5.65)"/></g><g id="appear3"><path id="path-3" data-name="path" class="cls-1" d="M255.1537,25.9356h0a.6628.6628,0,0,1-.26.68l-.8318.3287a.6629.6629,0,0,1-.68-.26h0a.663.663,0,0,1,.26-.68l.8318-.3287A.5737.5737,0,0,1,255.1537,25.9356Z" transform="translate(-5.972 -5.65)"/></g><g id="appear4"><path id="path-4" data-name="path" class="cls-1" d="M258.872,23.85h0a.6628.6628,0,0,1-.2.7l-.8.4a.6628.6628,0,0,1-.7-.2h0a.6628.6628,0,0,1,.2-.7l.8-.4A.5737.5737,0,0,1,258.872,23.85Z" transform="translate(-5.972 -5.65)"/></g><g id="appear5"><path id="path-5" data-name="path" class="cls-1" d="M262.18,21.412h0a.6632.6632,0,0,1-.0627.7254l-.709.5452a.6626.6626,0,0,1-.7253-.0627h0a.6628.6628,0,0,1,.0627-.7253l.709-.5453A.5738.5738,0,0,1,262.18,21.412Z" transform="translate(-5.972 -5.65)"/></g><g id="appear6"><path id="path-6" data-name="path" class="cls-1" d="M267,16.9864h0a.6628.6628,0,0,1,.14.7145l-.5312.72a.6628.6628,0,0,1-.7145.14h0a.6628.6628,0,0,1-.14-.7145l.5312-.72A.5737.5737,0,0,1,267,16.9864Z" transform="translate(-5.972 -5.65)"/></g><g id="appear7"><path id="path-7" data-name="path" class="cls-1" d="M269.27,12.4343h0a.6626.6626,0,0,1,.2967.6648l-.3557.8206a.6629.6629,0,0,1-.6648.2968h0a.6628.6628,0,0,1-.2967-.6648l.3557-.8207A.5738.5738,0,0,1,269.27,12.4343Z" transform="translate(-5.972 -5.65)"/></g><g id="appear8"><path id="path-8" data-name="path" class="cls-1" d="M267.065,8.4328h0a.6628.6628,0,0,1,.6838-.25l.7939.4121a.663.663,0,0,1,.25.6839h0a.6629.6629,0,0,1-.6839.25l-.7938-.4121A.5739.5739,0,0,1,267.065,8.4328Z" transform="translate(-5.972 -5.65)"/></g><g id="appear9"><path id="path-9" data-name="path" class="cls-1" d="M262.166,9.1942h0a.6629.6629,0,0,1,.0374-.7271l.69-.57a.6629.6629,0,0,1,.7271.0374h0a.6631.6631,0,0,1-.0374.7271l-.69.57A.5739.5739,0,0,1,262.166,9.1942Z" transform="translate(-5.972 -5.65)"/></g><g id="appear10"><path id="path-10" data-name="path" class="cls-1" d="M261.1476,13.9062h0a.6628.6628,0,0,1-.6039-.4065l-.1332-.8845a.6628.6628,0,0,1,.4065-.6039h0a.663.663,0,0,1,.604.4065l.1332.8845A.5738.5738,0,0,1,261.1476,13.9062Z" transform="translate(-5.972 -5.65)"/></g><g id="appear11"><path id="path-11" data-name="path" class="cls-1" d="M262.972,18.65h0a.6628.6628,0,0,1-.7-.2l-.4-.8a.6627.6627,0,0,1,.2-.7h0a.6628.6628,0,0,1,.7.2l.4.8A.5739.5739,0,0,1,262.972,18.65Z" transform="translate(-5.972 -5.65)"/></g><g id="appear12"><path id="path-12" data-name="path" class="cls-1" d="M265.949,22.7164h0a.6629.6629,0,0,1-.7262.0515l-.6495-.615a.6629.6629,0,0,1-.0515-.7262h0a.6629.6629,0,0,1,.7262-.0515l.6495.615A.5738.5738,0,0,1,265.949,22.7164Z" transform="translate(-5.972 -5.65)"/></g><g id="appear13"><path id="path-13" data-name="path" class="cls-1" d="M269.36,25.4685h0a.6631.6631,0,0,1-.6922.2256l-.7789-.44a.6628.6628,0,0,1-.2257-.6921h0a.663.663,0,0,1,.6922-.2257l.779.44A.5738.5738,0,0,1,269.36,25.4685Z" transform="translate(-5.972 -5.65)"/></g><g id="appear14"><path id="path-14" data-name="path" class="cls-1" d="M273.8076,27.4526h0a.6629.6629,0,0,1-.6171.3863l-.8621-.238a.6628.6628,0,0,1-.3864-.617h0a.6628.6628,0,0,1,.617-.3864l.8622.238A.5739.5739,0,0,1,273.8076,27.4526Z" transform="translate(-5.972 -5.65)"/></g><g id="appear15"><path id="path-15" data-name="path" class="cls-1" d="M278.7255,27.9657h0a.663.663,0,0,1-.4771.55l-.8941.0244a.663.663,0,0,1-.55-.4771h0a.663.663,0,0,1,.4771-.55l.8941-.0244A.5738.5738,0,0,1,278.7255,27.9657Z" transform="translate(-5.972 -5.65)"/></g><g id="appear16"><path id="path-16" data-name="path" class="cls-1" d="M283.6451,27.097h0a.6629.6629,0,0,1-.3412.6431l-.8657.225a.6629.6629,0,0,1-.6431-.3412h0a.6627.6627,0,0,1,.3412-.6431l.8656-.225A.5739.5739,0,0,1,283.6451,27.097Z" transform="translate(-5.972 -5.65)"/></g><g id="appear17"><path id="path-17" data-name="path" class="cls-1" d="M287.7006,25.6712h0a.6628.6628,0,0,1-.26.68l-.8318.3288a.6628.6628,0,0,1-.68-.26h0a.6628.6628,0,0,1,.26-.68l.8318-.3288A.5739.5739,0,0,1,287.7006,25.6712Z" transform="translate(-5.972 -5.65)"/></g><g id="appear18"><path id="path-18" data-name="path" class="cls-1" d="M291.872,23.65h0a.6628.6628,0,0,1-.2.7l-.8.4a.6628.6628,0,0,1-.7-.2h0a.6628.6628,0,0,1,.2-.7l.8-.4A.5737.5737,0,0,1,291.872,23.65Z" transform="translate(-5.972 -5.65)"/></g><path class="cls-1" d="M29.572,7.25v3.5h-10v20.1h-3.6V10.75h-10V7.25Z" transform="translate(-5.972 -5.65)"/><path class="cls-1" d="M46.772,11.85v3.5h-10.6a.6835.6835,0,0,0-.7.7v14.8h-3.5V16.15a5.0792,5.0792,0,0,1,.3-1.7,4.1945,4.1945,0,0,1,.9-1.4,3.39,3.39,0,0,1,1.4-.9,4.6712,4.6712,0,0,1,1.7-.3Z" transform="translate(-5.972 -5.65)"/><path class="cls-1" d="M63.972,11.85a5.0792,5.0792,0,0,1,1.7.3,4.1945,4.1945,0,0,1,1.4.9,3.39,3.39,0,0,1,.9,1.4,4.6712,4.6712,0,0,1,.3,1.7v14.8h-15.1a5.0792,5.0792,0,0,1-1.7-.3,4.1945,4.1945,0,0,1-1.4-.9,3.39,3.39,0,0,1-.9-1.4,4.6712,4.6712,0,0,1-.3-1.7v-7h15.8v-3.5a.6835.6835,0,0,0-.7-.7h-15.1v-3.5l15.1-.1Zm.7,11.3h-12.2v3.5a.6835.6835,0,0,0,.7.7h11.5Z" transform="translate(-5.972 -5.65)"/><path class="cls-1" d="M93.872,11.85l-10.5,19h-3.5l-10.5-19h4.1l8.2,15,8.2-15Z" transform="translate(-5.972 -5.65)"/><path class="cls-1" d="M109.272,11.85a5.0792,5.0792,0,0,1,1.7.3,4.1945,4.1945,0,0,1,1.4.9,3.39,3.39,0,0,1,.9,1.4,4.6712,4.6712,0,0,1,.3,1.7v7h-15.9v3.5a.6835.6835,0,0,0,.7.7h15.1v3.5h-15.1a5.0792,5.0792,0,0,1-1.7-.3,4.1945,4.1945,0,0,1-1.4-.9,3.39,3.39,0,0,1-.9-1.4,4.6712,4.6712,0,0,1-.3-1.7V16.15a5.0792,5.0792,0,0,1,.3-1.7,4.1945,4.1945,0,0,1,.9-1.4,3.39,3.39,0,0,1,1.4-.9,4.6712,4.6712,0,0,1,1.7-.3Zm.7,7.7v-3.5a.6835.6835,0,0,0-.7-.7h-10.9a.6835.6835,0,0,0-.7.7v3.5Z" transform="translate(-5.972 -5.65)"/><path class="cls-1" d="M116.772,16.15V5.65h3.5v21a.6835.6835,0,0,0,.7.7h3.5v3.5h-3.5a5.0792,5.0792,0,0,1-1.7-.3,4.1945,4.1945,0,0,1-1.4-.9,3.39,3.39,0,0,1-.9-1.4,4.6712,4.6712,0,0,1-.3-1.7l.1-10.4Z" transform="translate(-5.972 -5.65)"/><path class="cls-1" d="M161.672,7.25a5.0792,5.0792,0,0,1,1.7.3,4.1945,4.1945,0,0,1,1.4.9,3.39,3.39,0,0,1,.9,1.4,4.6712,4.6712,0,0,1,.3,1.7v15.1a5.0792,5.0792,0,0,1-.3,1.7,4.1945,4.1945,0,0,1-.9,1.4,3.39,3.39,0,0,1-1.4.9,4.6712,4.6712,0,0,1-1.7.3h-19.4V7.25Zm.7,4.3a.6835.6835,0,0,0-.7-.7h-15.1a.6835.6835,0,0,0-.7.7v15.1a.6835.6835,0,0,0,.7.7h15.1a.6835.6835,0,0,0,.7-.7Z" transform="translate(-5.972 -5.65)"/><path class="cls-1" d="M184.572,11.85a5.0792,5.0792,0,0,1,1.7.3,4.1945,4.1945,0,0,1,1.4.9,3.39,3.39,0,0,1,.9,1.4,4.6712,4.6712,0,0,1,.3,1.7v7h-15.9v3.5a.6835.6835,0,0,0,.7.7h15.1v3.5h-15.1a5.0792,5.0792,0,0,1-1.7-.3,4.1945,4.1945,0,0,1-1.4-.9,3.39,3.39,0,0,1-.9-1.4,4.6712,4.6712,0,0,1-.3-1.7V16.15a5.0792,5.0792,0,0,1,.3-1.7,4.1945,4.1945,0,0,1,.9-1.4,3.39,3.39,0,0,1,1.4-.9,4.6712,4.6712,0,0,1,1.7-.3Zm.7,7.7v-3.5a.6835.6835,0,0,0-.7-.7h-10.8a.6835.6835,0,0,0-.7.7v3.5Z" transform="translate(-5.972 -5.65)"/><path class="cls-1" d="M207.272,11.85a5.0792,5.0792,0,0,1,1.7.3,4.1945,4.1945,0,0,1,1.4.9,3.39,3.39,0,0,1,.9,1.4,4.6712,4.6712,0,0,1,.3,1.7v14.8h-15.1a5.0792,5.0792,0,0,1-1.7-.3,4.1945,4.1945,0,0,1-1.4-.9,3.39,3.39,0,0,1-.9-1.4,4.6712,4.6712,0,0,1-.3-1.7v-7h15.8v-3.5a.6835.6835,0,0,0-.7-.7h-15.1v-3.5l15.1-.1Zm.7,11.3h-12.3v3.5a.6835.6835,0,0,0,.7.7h11.6Z" transform="translate(-5.972 -5.65)"/><path class="cls-1" d="M214.272,16.15V5.65h3.5v21a.6835.6835,0,0,0,.7.7h3.5v3.5h-3.5a5.0792,5.0792,0,0,1-1.7-.3,4.1945,4.1945,0,0,1-1.4-.9,3.39,3.39,0,0,1-.9-1.4,4.6712,4.6712,0,0,1-.3-1.7l.1-10.4Z" transform="translate(-5.972 -5.65)"/><g id="plane"><path class="cls-1" d="M315.0113,6.6875c.2.7-1.4,2.4-4.5,4.8v4l.9-.5c.2-.1.4-.1.5.1.3.4.3.7-.1.8l-1.6,1.2.2,2.7.8-.4a.6139.6139,0,0,1,.6.1c.2.3.3.5-.1.7l-1.5,1.4v2.8c-.1.3-.1.5-.3.7l-1.1.8-1.6-6.9a8.57,8.57,0,0,0-1.3-3.2c-.5-.6-1-.5-1.6,0a41.5889,41.5889,0,0,1-4.9,3.3v4l-1.3,1.3-1.4-4a1.5979,1.5979,0,0,0-1,.5c.2-.2.4-.6.7-.9l-3.5-2.5,1.6-.8,3.9,1.1c1.6-1.5,3.1-2.8,4.4-3.9.7-.5.9-1,.3-1.5a9.289,9.289,0,0,0-2.8-2.1l-6.1-3.3,1.1-.8c.3-.2.5-.3.8,0l2.6.8,1.6-1.1c.3-.2.5-.3.7.1a1.4828,1.4828,0,0,1,.1.7l-.8.8,2.4.8,1.6-1.1a.4666.4666,0,0,1,.7.1c.1.2.1.4-.1.5l-.8.8,3.9,1.1C312.7113,6.1875,314.7113,5.3875,315.0113,6.6875Z" transform="translate(-5.972 -5.65)"/></g><path class="cls-1" d="M224.272,11.85h19.3v4.2l-14.6,11.3h14.6v3.5h-19.3v-4.2l14.6-11.3h-14.6Z" transform="translate(-5.972 -5.65)"/><path class="cls-1" d="M137.372,20.35a1.0754,1.0754,0,0,1-1,1h-6.9a1.0754,1.0754,0,0,1-1-1v-1.1a1.0754,1.0754,0,0,1,1-1h6.9a1.0754,1.0754,0,0,1,1,1Z" transform="translate(-5.972 -5.65)"/></svg>
