<svg id="Ebene_6" data-name="Ebene 6" xmlns="http://www.w3.org/2000/svg" viewBox="0 0 54.0311 43.6998"><defs><style>.cls-1,.cls-2{fill:none;stroke-width:1.5px;}.cls-1{stroke:#FA8C38;stroke-miterlimit:10;}.cls-2{stroke:#000;stroke-linecap:round;stroke-linejoin:round;}</style></defs><path class="cls-1" d="M39.5,8.2588a5.6419,5.6419,0,0,0-7.9789-.0019l-.0019.0019L30.4316,9.3461,29.3442,8.2588A5.6432,5.6432,0,0,0,21.3635,16.24l1.0874,1.0873,7.9807,7.9808,7.9807-7.9808L39.5,16.24a5.642,5.642,0,0,0,.0018-7.9789Z" transform="translate(-3.25 -5.8553)"/><path class="cls-2" d="M23.3084,39.9106H36.52a2.7646,2.7646,0,0,0,2.6726-2.8865,2.6959,2.6959,0,0,0-2.63-2.75H25.204l-6.1724-4.28a4.4268,4.4268,0,0,0-3.9223-.5618l-3.9957,1.3319H4V44.9917h7.1136l16.59,3.6867a5.3214,5.3214,0,0,0,3.2979-.3239l23.81-10.4764s2.49-1.2445,1.477-3.6038c-1.0461-2.436-3.9945-1.288-3.9945-1.288l-13.21,5.1591" transform="translate(-3.25 -5.8553)"/></svg>
