<svg id="Ebene_2" data-name="Ebene 2" xmlns="http://www.w3.org/2000/svg" viewBox="0 0 54.2786 48.1433"><defs><style>.cls-1,.cls-2{fill:none;stroke-linecap:round;stroke-linejoin:round;stroke-width:1.5px;}.cls-1{stroke:#FA8C38;}.cls-2{stroke:#000;}</style></defs><line class="cls-1" x1="17.5432" y1="9.1466" x2="0.75" y2="9.1466"/><polyline class="cls-1" points="9.147 17.543 0.75 9.147 9.147 0.75"/><line class="cls-1" x1="36.7354" y1="9.1466" x2="53.5286" y2="9.1466"/><polyline class="cls-1" points="45.132 0.75 53.529 9.147 45.132 17.543"/><path class="cls-2" d="M23.595,38.1593V17.556A2.4034,2.4034,0,0,1,26.2762,15.21a2.5367,2.5367,0,0,1,2.6813,2.5578V31.1034" transform="translate(-3.25 -5.6067)"/><path class="cls-2" d="M22.7483,29.2688h-2.54A2.349,2.349,0,0,0,18.0913,31.88V45.5871a6.4629,6.4629,0,0,0,4.142,6.0882A27.0538,27.0538,0,0,0,31.5541,53a36.8739,36.8739,0,0,0,8.4921-.8084,6.5635,6.5635,0,0,0,4.9989-6.3986v-17.23s0-3.2564-3.0348-3.2564c-2.1215,0-12.2061.0107-12.2061.0107" transform="translate(-3.25 -5.6067)"/><path class="cls-2" d="M34.25,31.2445c.0705-.4234,0-5.9316,0-5.9316" transform="translate(-3.25 -5.6067)"/><line class="cls-2" x1="36.0092" y1="25.6378" x2="36.0092" y2="19.7063"/></svg>
