<svg id="Ebene_1" data-name="Ebene 1" xmlns="http://www.w3.org/2000/svg" viewBox="0 0 53.6768 50.1831"><defs><style>.cls-1,.cls-2{fill:none;stroke-width:1.5px;}.cls-1{stroke:#FA8C38;stroke-miterlimit:10;}.cls-2{stroke:#000;stroke-linecap:round;stroke-linejoin:round;}</style></defs><path class="cls-1" d="M40.4988,45.1818v5.53a3.6864,3.6864,0,0,1-3.6714,3.7014q-.1737.0008-.3468-.0149a36.4774,36.4774,0,0,1-15.9071-5.6587A35.9427,35.9427,0,0,1,9.5141,37.68,36.4771,36.4771,0,0,1,3.8554,21.6991a3.6864,3.6864,0,0,1,3.34-4.0033q.1638-.0148.3283-.015h5.53a3.6865,3.6865,0,0,1,3.6865,3.17,23.67,23.67,0,0,0,1.29,5.18A3.6866,3.6866,0,0,1,17.2,29.92l-3.8372,2.3409A37.86,37.86,0,0,0,25.9189,44.8165L28.26,40.9793a3.6863,3.6863,0,0,1,3.8892-.83,23.6693,23.6693,0,0,0,5.1795,1.29A3.6863,3.6863,0,0,1,40.4988,45.1818Z" transform="translate(-3.0902 -4.9799)"/><rect class="cls-2" x="22.0711" y="6.9211" width="30.8557" height="21.599" rx="3.0856"/><path class="cls-2" d="M32.0473,12.528V33.5" transform="translate(-3.0902 -4.9799)"/><path class="cls-2" d="M46.76,8.8154A3.0856,3.0856,0,0,0,43.6747,5.73H37.5036A3.0855,3.0855,0,0,0,34.418,8.8154" transform="translate(-3.0902 -4.9799)"/><path class="cls-2" d="M49.1309,33.5V12.6326" transform="translate(-3.0902 -4.9799)"/></svg>
