<svg id="Ebene_5" data-name="Ebene 5" xmlns="http://www.w3.org/2000/svg" viewBox="0 0 51.5 54.5"><defs><style>.cls-1,.cls-2,.cls-3{fill:none;stroke-width:1.5px;}.cls-1{stroke:#FA8C38;}.cls-1,.cls-3{stroke-miterlimit:10;}.cls-2,.cls-3{stroke:#000;}.cls-2{stroke-linecap:round;stroke-linejoin:round;}</style></defs><circle class="cls-1" cx="30.5078" cy="5.9922" r="5.2422"/><path class="cls-2" d="M17.7524,11.8886v9.6042a11.0026,11.0026,0,0,0-5.8884,6.2914C11.4,29.0083,5,30.6439,5,30.6439v9.723s5.9511.9532,9.1392,4.1943S17.3273,56,17.3273,56h8.289l1.4878-5.91a23.02,23.02,0,0,0,4.8884.572,12.8219,12.8219,0,0,0,5.526-1.3346V56h9.7768l1.4878-10.4856s5.7034-4.53,6.1637-10.6763A16.2819,16.2819,0,0,0,48.4409,20.15c-4.0543-3.0105-14.482-5.247-21.3541-1.8153C24.82,16.81,17.7524,11.8886,17.7524,11.8886Z" transform="translate(-4.25 -2.25)"/><path class="cls-2" d="M29.9734,21.3022s5.141-2.1411,10.0956,0" transform="translate(-4.25 -2.25)"/><ellipse class="cls-3" cx="15.8026" cy="24.3372" rx="1.3562" ry="1.2165"/></svg>
